name analog
datacolumns 19
datarows 27
range 0.0 0.013000000000000001
endheader
time	ground_force_vx	ground_force_vy	ground_force_vz	ground_force_px	ground_force_py	ground_force_pz	l_ground_force_vx	l_ground_force_vy	l_ground_force_vz	l_ground_force_px	l_ground_force_py	l_ground_force_pz	ground_torque_x	ground_torque_y	ground_torque_z	l_ground_torque_x	l_ground_torque_y	l_ground_torque_z
0.0	-0.0	-0.0	-0.0	-1.81117045879364	37.1152572631836	-363.2954711914063	-1.142032504081726	-39.19809341430664	-403.9243469238281	-0.0	-0.0	-0.0	-0.0	-0.0	-0.0	118531.328125	11728.3896484375	-4045.077880859375
0.0005	-0.0	-0.0	-0.0	-2.1979541778564453	36.6473388671875	-362.32366943359375	-0.8871078491210938	-39.22029113769531	-402.92095947265625	-0.0	-0.0	-0.0	-0.0	-0.0	-0.0	118505.265625	11684.1396484375	-3997.656494140625
0.001	-0.0	-0.0	-0.0	-1.9626312255859373	37.03129959106445	-363.0689697265625	-0.9234579205513	-39.568115234375	-402.3867492675781	-0.0	-0.0	-0.0	-0.0	-0.0	-0.0	118606.25	11476.736328125	-3912.42041015625
0.0015	-0.0	-0.0	-0.0	-1.8218027353286743	36.627925872802734	-363.8123474121094	-0.6731904149055481	-39.65644073486328	-403.0027465820313	-0.0	-0.0	-0.0	-0.0	-0.0	-0.0	118510.453125	11586.6748046875	-3999.48876953125
0.002	-0.0	-0.0	-0.0	-2.0609941482543945	36.0840950012207	-363.9066467285156	-0.8871078491210938	-39.51115798950195	-403.4953002929688	-0.0	-0.0	-0.0	-0.0	-0.0	-0.0	118463.90625	11602.3076171875	-3926.31982421875
0.0025	-0.0	-0.0	-0.0	-1.864559769630432	36.22929763793945	-364.1285400390625	-1.1013902425765991	-39.65644073486328	-402.5914611816406	-0.0	-0.0	-0.0	-0.0	-0.0	-0.0	118506.1640625	11593.4580078125	-3926.50927734375
0.003	-0.0	-0.0	-0.0	-1.775594711303711	36.89998626708984	-362.8668212890625	-0.9241517782211304	-39.4283561706543	-402.3684692382813	-0.0	-0.0	-0.0	-0.0	-0.0	-0.0	118586.9296875	11428.5654296875	-3941.97216796875
0.0035	-0.0	-0.0	-0.0	-1.4824389219284058	36.37775421142578	-365.3895263671875	-0.8308687806129456	-39.55392074584961	-401.87353515625	-0.0	-0.0	-0.0	-0.0	-0.0	-0.0	118201.0546875	11369.072265625	-3851.3359375
0.004	-0.0	-0.0	-0.0	-1.7335442304611206	36.50495529174805	-364.0079345703125	-0.7845713496208191	-39.43792724609375	-402.71917724609375	-0.0	-0.0	-0.0	-0.0	-0.0	-0.0	118532.1796875	11227.974609375	-3879.420654296875
0.0045000000000000005	-0.0	-0.0	-0.0	-1.4155397415161133	36.36126708984375	-362.3782348632813	-0.6119526624679565	-39.484283447265625	-402.7375183105469	-0.0	-0.0	-0.0	-0.0	-0.0	-0.0	118455.171875	11084.697265625	-3885.392578125
0.005	-0.0	-0.0	-0.0	-1.659887194633484	36.26848983764648	-363.1141052246094	-0.5322647094726562	-39.4334602355957	-401.3583984375	-0.0	-0.0	-0.0	-0.0	-0.0	-0.0	118454.8359375	10962.173828125	-3794.75
0.0055	-0.0	-0.0	-0.0	-1.3920127153396606	36.849876403808594	-362.7304382324219	-0.4056033790111542	-39.16004180908203	-401.8230895996094	-0.0	-0.0	-0.0	-0.0	-0.0	-0.0	118443.3046875	11160.0439453125	-3749.33203125
0.006	-0.0	-0.0	-0.0	-1.2846094369888306	36.36878204345703	-363.4079895019531	-0.5364125370979309	-39.52189254760742	-402.38909912109375	-0.0	-0.0	-0.0	-0.0	-0.0	-0.0	118334.765625	11039.369140625	-3748.089111328125
0.006500000000000001	-0.0	-0.0	-0.0	-1.209489107131958	36.50747299194336	-364.3390808105469	-0.3628490567207336	-39.66440963745117	-401.643798828125	-0.0	-0.0	-0.0	-0.0	-0.0	-0.0	118474.0390625	10810.7919921875	-3762.16455078125
0.007	-0.0	-0.0	-0.0	-1.2489471435546875	36.05491638183594	-364.6648864746094	-0.5785730481147766	-39.65254974365234	-402.7540893554688	-0.0	-0.0	-0.0	-0.0	-0.0	-0.0	118600.3203125	10885.21875	-3717.18212890625
0.0075	-0.0	-0.0	-0.0	-1.2855228185653689	36.015098571777344	-364.9924011230469	-0.4473384618759155	-39.51830291748047	-403.2552185058594	-0.0	-0.0	-0.0	-0.0	-0.0	-0.0	118561.7421875	10786.3447265625	-3671.966552734375
0.008	-0.0	-0.0	-0.0	-1.4273681640625	36.4021110534668	-364.06781005859375	-0.3159472346305847	-39.47254943847656	-402.5431823730469	-0.0	-0.0	-0.0	-0.0	-0.0	-0.0	118727.8671875	10778.91796875	-3581.724853515625
0.0085	-0.0	-0.0	-0.0	-0.9292895197868348	36.0948486328125	-365.5647583007813	-0.4470963478088379	-39.42681884765625	-402.4042053222656	-0.0	-0.0	-0.0	-0.0	-0.0	-0.0	118624.828125	10539.197265625	-3674.433349609375
0.009000000000000001	-0.0	-0.0	-0.0	-0.768168568611145	35.870758056640625	-364.481689453125	-0.0955058187246322	-39.79061126708984	-403.0755004882813	-0.0	-0.0	-0.0	-0.0	-0.0	-0.0	118621.2109375	10563.64453125	-3644.587646484375
0.0095	-0.0	-0.0	-0.0	-0.8434137105941772	36.01140594482422	-366.4187927246094	-0.0394060611724853	-39.52560043334961	-403.42523193359375	-0.0	-0.0	-0.0	-0.0	-0.0	-0.0	118662.703125	10396.775390625	-3569.752197265625
0.01	-0.0	-0.0	-0.0	-0.9328075051307678	36.09781646728516	-366.076171875	-0.1314771622419357	-39.43405151367188	-402.89593505859375	-0.0	-0.0	-0.0	-0.0	-0.0	-0.0	118975.5234375	10275.205078125	-3495.102783203125
0.0105	-0.0	-0.0	-0.0	-0.9428508281707764	36.27607727050781	-366.0466918945313	0.2721986472606659	-39.25748062133789	-403.1134643554688	-0.0	-0.0	-0.0	-0.0	-0.0	-0.0	118850.2265625	10157.1240234375	-3407.831787109375
0.011	-0.0	-0.0	-0.0	-1.2489471435546875	35.96529769897461	-366.4475402832031	0.3119557499885559	-39.25168228149414	-402.9440612792969	-0.0	-0.0	-0.0	-0.0	-0.0	-0.0	119068.6796875	10123.294921875	-3465.11767578125
0.0115	-0.0	-0.0	-0.0	-0.8921051025390625	35.82818984985352	-366.9539794921875	0.2203695625066757	-39.13211441040039	-404.1374816894531	-0.0	-0.0	-0.0	-0.0	-0.0	-0.0	119169.5859375	10204.9482421875	-3464.2314453125
0.012	-0.0	-0.0	-0.0	-1.1182677745819092	36.10408020019531	-368.5143127441406	0.3925237357616424	-39.21749114990234	-404.4764099121094	-0.0	-0.0	-0.0	-0.0	-0.0	-0.0	119144.5234375	9964.3017578125	-3316.776123046875
0.0125	-0.0	-0.0	-0.0	-1.649397850036621	36.14337539672852	-366.78131103515625	0.6640444993972778	-38.858985900878906	-403.98870849609375	-0.0	-0.0	-0.0	-0.0	-0.0	-0.0	119288.328125	9967.0634765625	-3318.228759765625
0.013000000000000001	-0.0	-0.0	-0.0	-1.5202736854553225	36.2324333190918	-368.3374328613281	0.6616891026496887	-39.16462707519531	-404.6476440429688	-0.0	-0.0	-0.0	-0.0	-0.0	-0.0	119109.3515625	9709.49609375	-3302.99755859375
